<svg width="20" height="24" viewBox="0 0 20 24" fill="none" xmlns="http://www.w3.org/2000/svg">
<path d="M19.5352 18.1421C19.1848 18.953 18.77 19.6994 18.2894 20.3856C17.6343 21.3211 17.0979 21.9686 16.6845 22.3282C16.0437 22.9184 15.3572 23.2207 14.622 23.2379C14.0942 23.2379 13.4577 23.0875 12.7168 22.7823C11.9734 22.4786 11.2903 22.3282 10.6656 22.3282C10.0105 22.3282 9.30795 22.4786 8.55645 22.7823C7.8038 23.0875 7.19748 23.2465 6.7339 23.2623C6.02888 23.2924 5.32615 22.9815 4.62471 22.3282C4.17701 21.9371 3.61703 21.2666 2.9462 20.3168C2.22645 19.3025 1.63471 18.1263 1.17114 16.7854C0.674662 15.337 0.425781 13.9345 0.425781 12.5767C0.425781 11.0213 0.761341 9.67978 1.43346 8.55561C1.96169 7.65263 2.66442 6.94033 3.54394 6.41743C4.42346 5.89452 5.37378 5.62806 6.3972 5.61101C6.95718 5.61101 7.69152 5.7845 8.60408 6.12546C9.51407 6.46757 10.0984 6.64106 10.3545 6.64106C10.5461 6.64106 11.1952 6.4382 12.2955 6.03377C13.3361 5.65871 14.2143 5.50342 14.9338 5.56459C16.8834 5.72218 18.348 6.49192 19.3221 7.87869C17.5785 8.93682 16.716 10.4189 16.7332 12.3201C16.7489 13.801 17.2853 15.0333 18.3395 16.0118C18.8172 16.4659 19.3507 16.8169 19.9443 17.0662C19.8156 17.4401 19.6797 17.7983 19.5352 18.1421V18.1421ZM15.064 0.51949C15.064 1.68021 14.6406 2.76397 13.7967 3.76709C12.7783 4.9596 11.5464 5.64868 10.2106 5.53995C10.1936 5.4007 10.1838 5.25414 10.1838 5.10014C10.1838 3.98585 10.6681 2.79334 11.5281 1.8183C11.9575 1.32462 12.5036 0.914132 13.1659 0.586679C13.8267 0.264111 14.4518 0.0857238 15.0396 0.0551758C15.0568 0.210346 15.064 0.365526 15.064 0.519475V0.51949Z" fill="black"/>
</svg>
